<?xml version="1.0" encoding="UTF-8" standalone="no"?><svg xmlns="http://www.w3.org/2000/svg" xmlns:xlink="http://www.w3.org/1999/xlink" contentScriptType="application/ecmascript" contentStyleType="text/css" height="531px" preserveAspectRatio="none" style="width:656px;height:531px;" version="1.1" viewBox="0 0 656 531" width="656px" zoomAndPan="magnify"><defs><filter height="300%" id="f169rqncmykfae" width="300%" x="-1" y="-1"><feGaussianBlur result="blurOut" stdDeviation="2.0"/><feColorMatrix in="blurOut" result="blurOut2" type="matrix" values="0 0 0 0 0 0 0 0 0 0 0 0 0 0 0 0 0 0 .4 0"/><feOffset dx="4.0" dy="4.0" in="blurOut2" result="blurOut3"/><feBlend in="SourceGraphic" in2="blurOut3" mode="normal"/></filter></defs><g><text fill="#000000" font-family="sans-serif" font-size="18" lengthAdjust="spacingAndGlyphs" textLength="247" x="207.5" y="18.6855">Robbing a House For Foooood</text><rect fill="#FEFECE" filter="url(#f169rqncmykfae)" height="50" rx="12.5" ry="12.5" style="stroke: #A80036; stroke-width: 1.5;" width="70" x="440.5" y="140.6406"/><line style="stroke: #A80036; stroke-width: 1.5;" x1="440.5" x2="510.5" y1="168.25" y2="168.25"/><text fill="#000000" font-family="sans-serif" font-size="14" lengthAdjust="spacingAndGlyphs" textLength="50" x="450.5" y="160.1738">selector</text><rect fill="#FEFECE" filter="url(#f169rqncmykfae)" height="50" rx="12.5" ry="12.5" style="stroke: #A80036; stroke-width: 1.5;" width="82" x="372.5" y="250.6406"/><line style="stroke: #A80036; stroke-width: 1.5;" x1="372.5" x2="454.5" y1="278.25" y2="278.25"/><text fill="#000000" font-family="sans-serif" font-size="14" lengthAdjust="spacingAndGlyphs" textLength="62" x="382.5" y="270.1738">sequence</text><rect fill="#FEFECE" filter="url(#f169rqncmykfae)" height="50" rx="12.5" ry="12.5" style="stroke: #A80036; stroke-width: 1.5;" width="70" x="200.5" y="360.6406"/><line style="stroke: #A80036; stroke-width: 1.5;" x1="200.5" x2="270.5" y1="388.25" y2="388.25"/><text fill="#000000" font-family="sans-serif" font-size="14" lengthAdjust="spacingAndGlyphs" textLength="50" x="210.5" y="380.1738">selector</text><rect fill="#FEFECE" filter="url(#f169rqncmykfae)" height="50" rx="12.5" ry="12.5" style="stroke: #A80036; stroke-width: 1.5;" width="85" x="6" y="470.6406"/><line style="stroke: #A80036; stroke-width: 1.5;" x1="6" x2="91" y1="498.25" y2="498.25"/><text fill="#000000" font-family="sans-serif" font-size="14" lengthAdjust="spacingAndGlyphs" textLength="65" x="16" y="490.1738">open door</text><rect fill="#FEFECE" filter="url(#f169rqncmykfae)" height="50" rx="12.5" ry="12.5" style="stroke: #A80036; stroke-width: 1.5;" width="89" x="126" y="470.6406"/><line style="stroke: #A80036; stroke-width: 1.5;" x1="126" x2="215" y1="498.25" y2="498.25"/><text fill="#000000" font-family="sans-serif" font-size="14" lengthAdjust="spacingAndGlyphs" textLength="69" x="136" y="490.1738">break door</text><rect fill="#FEFECE" filter="url(#f169rqncmykfae)" height="50" rx="12.5" ry="12.5" style="stroke: #A80036; stroke-width: 1.5;" width="101" x="250" y="470.6406"/><line style="stroke: #A80036; stroke-width: 1.5;" x1="250" x2="351" y1="498.25" y2="498.25"/><text fill="#000000" font-family="sans-serif" font-size="14" lengthAdjust="spacingAndGlyphs" textLength="81" x="260" y="490.1738">open window</text><rect fill="#FEFECE" filter="url(#f169rqncmykfae)" height="50" rx="12.5" ry="12.5" style="stroke: #A80036; stroke-width: 1.5;" width="105" x="386" y="470.6406"/><line style="stroke: #A80036; stroke-width: 1.5;" x1="386" x2="491" y1="498.25" y2="498.25"/><text fill="#000000" font-family="sans-serif" font-size="14" lengthAdjust="spacingAndGlyphs" textLength="85" x="396" y="490.1738">break window</text><rect fill="#FEFECE" filter="url(#f169rqncmykfae)" height="50" rx="12.5" ry="12.5" style="stroke: #A80036; stroke-width: 1.5;" width="96" x="305.5" y="360.6406"/><line style="stroke: #A80036; stroke-width: 1.5;" x1="305.5" x2="401.5" y1="388.25" y2="388.25"/><text fill="#000000" font-family="sans-serif" font-size="14" lengthAdjust="spacingAndGlyphs" textLength="76" x="315.5" y="380.1738">enter house</text><rect fill="#FEFECE" filter="url(#f169rqncmykfae)" height="50" rx="12.5" ry="12.5" style="stroke: #A80036; stroke-width: 1.5;" width="75" x="437" y="360.6406"/><line style="stroke: #A80036; stroke-width: 1.5;" x1="437" x2="512" y1="388.25" y2="388.25"/><text fill="#000000" font-family="sans-serif" font-size="14" lengthAdjust="spacingAndGlyphs" textLength="55" x="447" y="380.1738">find food</text><rect fill="#FEFECE" filter="url(#f169rqncmykfae)" height="50" rx="12.5" ry="12.5" style="stroke: #A80036; stroke-width: 1.5;" width="97" x="547" y="360.6406"/><line style="stroke: #A80036; stroke-width: 1.5;" x1="547" x2="644" y1="388.25" y2="388.25"/><text fill="#000000" font-family="sans-serif" font-size="14" lengthAdjust="spacingAndGlyphs" textLength="77" x="557" y="380.1738">leave house</text><rect fill="#FEFECE" filter="url(#f169rqncmykfae)" height="50" rx="12.5" ry="12.5" style="stroke: #A80036; stroke-width: 1.5;" width="97" x="490" y="250.6406"/><line style="stroke: #A80036; stroke-width: 1.5;" x1="490" x2="587" y1="278.25" y2="278.25"/><text fill="#000000" font-family="sans-serif" font-size="14" lengthAdjust="spacingAndGlyphs" textLength="77" x="500" y="270.1738">leave house</text><rect fill="#FEFECE" filter="url(#f169rqncmykfae)" height="50" rx="12.5" ry="12.5" style="stroke: #A80036; stroke-width: 1.5;" width="50" x="450.5" y="30.6406"/><line style="stroke: #A80036; stroke-width: 1.5;" x1="450.5" x2="500.5" y1="58.25" y2="58.25"/><text fill="#000000" font-family="sans-serif" font-size="14" lengthAdjust="spacingAndGlyphs" textLength="25" x="463" y="50.1738">root</text><!--MD5=[93f3e5bdd344d915996552583d420a56]
link root to selector1--><path d="M475.5,80.8776 C475.5,96.9976 475.5,118.2616 475.5,135.3316 " fill="none" id="root-&gt;selector1" style="stroke: #A80036; stroke-width: 1.0;"/><polygon fill="#A80036" points="475.5,140.4846,479.5,131.4846,475.5,135.4846,471.5,131.4846,475.5,140.4846" style="stroke: #A80036; stroke-width: 1.0;"/><!--MD5=[04699a0564097adeb1d3f7920bc6c657]
link selector1 to sequence1--><path d="M461.586,190.8776 C452.253,207.1356 439.914,228.6286 430.073,245.7726 " fill="none" id="selector1-&gt;sequence1" style="stroke: #A80036; stroke-width: 1.0;"/><polygon fill="#A80036" points="427.368,250.4846,435.318,244.671,429.8575,246.1484,428.3801,240.6879,427.368,250.4846" style="stroke: #A80036; stroke-width: 1.0;"/><!--MD5=[0fc4dd73494b7998e24eef1ca14d9369]
link sequence1 to selector2--><path d="M373.553,300.8776 C344.267,318.6466 304.676,342.6686 275.401,360.4306 " fill="none" id="sequence1-&gt;selector2" style="stroke: #A80036; stroke-width: 1.0;"/><polygon fill="#A80036" points="270.794,363.2266,280.5632,361.9763,275.0683,360.6323,276.4123,355.1375,270.794,363.2266" style="stroke: #A80036; stroke-width: 1.0;"/><!--MD5=[b5192bf657592734fdd087d785d362ab]
link selector2 to openDoor1--><path d="M200.327,406.9546 C170.457,424.2056 127.364,449.0933 94.7135,467.9504 " fill="none" id="selector2-&gt;openDoor1" style="stroke: #A80036; stroke-width: 1.0;"/><polygon fill="#A80036" points="90.3809,470.4527,100.175,469.4152,94.7106,467.952,96.1738,462.4877,90.3809,470.4527" style="stroke: #A80036; stroke-width: 1.0;"/><!--MD5=[a4414956d76ee8a3e060f91d99837f43]
link selector2 to breakDoor1--><path d="M220.913,410.8776 C211.128,427.1361 198.192,448.6288 187.875,465.7722 " fill="none" id="selector2-&gt;breakDoor1" style="stroke: #A80036; stroke-width: 1.0;"/><polygon fill="#A80036" points="185.039,470.4842,193.1077,464.8366,187.6178,466.2005,186.2539,460.7106,185.039,470.4842" style="stroke: #A80036; stroke-width: 1.0;"/><!--MD5=[1cce16ed64cde8f64e9c16140208fcf7]
link selector2 to openWindow1--><path d="M250.087,410.8776 C259.872,427.1361 272.808,448.6288 283.125,465.7722 " fill="none" id="selector2-&gt;openWindow1" style="stroke: #A80036; stroke-width: 1.0;"/><polygon fill="#A80036" points="285.961,470.4842,284.7461,460.7106,283.3822,466.2005,277.8923,464.8366,285.961,470.4842" style="stroke: #A80036; stroke-width: 1.0;"/><!--MD5=[06377d2c3e626b02782e2bbfe8a5c400]
link selector2 to breakWindow1--><path d="M270.86,405.4526 C303.365,422.7464 351.901,448.5682 388.395,467.9836 " fill="none" id="selector2-&gt;breakWindow1" style="stroke: #A80036; stroke-width: 1.0;"/><polygon fill="#A80036" points="393.235,470.5587,387.1685,462.8001,388.8209,468.2102,383.4108,469.8626,393.235,470.5587" style="stroke: #A80036; stroke-width: 1.0;"/><!--MD5=[cde2a725a6107c4adae4202cc2a1b0ff]
link sequence1 to enterHouse1--><path d="M400.035,300.8776 C391.003,317.1356 379.062,338.6286 369.538,355.7726 " fill="none" id="sequence1-&gt;enterHouse1" style="stroke: #A80036; stroke-width: 1.0;"/><polygon fill="#A80036" points="366.92,360.4846,374.7882,354.5609,369.3488,356.1142,367.7955,350.6748,366.92,360.4846" style="stroke: #A80036; stroke-width: 1.0;"/><!--MD5=[06d29e4df5ff3786dc9ef41ceb5687b7]
link sequence1 to findFood1--><path d="M427.19,300.8776 C436.372,317.1356 448.512,338.6286 458.195,355.7726 " fill="none" id="sequence1-&gt;findFood1" style="stroke: #A80036; stroke-width: 1.0;"/><polygon fill="#A80036" points="460.856,360.4846,459.9116,350.6811,458.3966,356.1313,452.9464,354.6162,460.856,360.4846" style="stroke: #A80036; stroke-width: 1.0;"/><!--MD5=[20431c2a10548ece7f5242f1e65534c2]
link sequence1 to leaveHouse1--><path d="M454.344,300.8776 C482.796,317.7616 520.761,340.2896 550.151,357.7306 " fill="none" id="sequence1-&gt;leaveHouse1" style="stroke: #A80036; stroke-width: 1.0;"/><polygon fill="#A80036" points="554.792,360.4846,549.0931,352.452,550.492,357.9332,545.0108,359.332,554.792,360.4846" style="stroke: #A80036; stroke-width: 1.0;"/><!--MD5=[e9994ad9a517a3354d80222072d356b0]
link selector1 to leaveHouse2--><path d="M489.638,190.8776 C499.122,207.1356 511.66,228.6286 521.66,245.7726 " fill="none" id="selector1-&gt;leaveHouse2" style="stroke: #A80036; stroke-width: 1.0;"/><polygon fill="#A80036" points="524.409,250.4846,523.3303,240.695,521.8901,246.1655,516.4196,244.7253,524.409,250.4846" style="stroke: #A80036; stroke-width: 1.0;"/><!--MD5=[b966161a7b3c30df58c785c5183400dc]
@startuml ExampleTree

title Robbing a House For Foooood

state "selector" as selector1
state "sequence" as sequence1
state "selector" as selector2
state "open door" as openDoor1
state "break door" as breakDoor1
state "open window" as openWindow1
state "break window" as breakWindow1
state "enter house" as enterHouse1
state "find food" as findFood1
state "leave house" as leaveHouse1
state "leave house" as leaveHouse2

root -down-> selector1
    selector1 -down-> sequence1
        sequence1 -down-> selector2
            selector2 -down-> openDoor1
            selector2 -down-> breakDoor1
            selector2 -down-> openWindow1
            selector2 -down-> breakWindow1
        sequence1 -down-> enterHouse1
        sequence1 -down-> findFood1
        sequence1 -down-> leaveHouse1
    selector1 -down-> leaveHouse2

@enduml

PlantUML version 1.2020.06(Sun Apr 05 08:38:32 EDT 2020)
(GPL source distribution)
Java Runtime: OpenJDK Runtime Environment
JVM: OpenJDK 64-Bit Server VM
Java Version: 14+36
Operating System: Windows 10
Default Encoding: UTF-8
Language: en
Country: US
--></g></svg>